<svg xmlns="http://www.w3.org/2000/svg" xmlns:xlink="http://www.w3.org/1999/xlink" width="64" height="57" viewBox="0 0 64 57"><defs><path id="vccoa" d="M599.542 4188.37a3.088 3.088 0 0 1 2.377 3.648l-.744 4.782-45.222-9.562.745-4.781a3.09 3.09 0 0 1 3.652-2.374zm-15.807 11.867l15.74 3.328-2.765 13.052a3.09 3.09 0 0 1-3.653 2.374l-4.37-.922 1.166 4.198a3.117 3.117 0 0 1-2.165 3.825l-38.961 10.803a3.12 3.12 0 0 1-3.829-2.164l-6.792-24.454a3.117 3.117 0 0 1 2.166-3.825l12.052-3.342 1.929-9.106 17.54 3.708 7.44-2.063a3.121 3.121 0 0 1 3.828 2.163zm3.825 10.005c-.144.68.296 1.356.98 1.501l4.553.963a1.272 1.272 0 0 0 1.503-.977l.963-4.55a1.27 1.27 0 0 0-.978-1.5l-4.554-.964a1.272 1.272 0 0 0-1.503.976zm-46.61-1.35a.582.582 0 0 0-.4.708l1.328 4.781 40.067-11.109-1.007-3.625-.321-1.157a.587.587 0 0 0-.708-.4l-2.738.76-25.44 7.054zm44.941 8.586l-2.443-8.798-40.068 11.11 3.962 14.264c.077.275.34.42.559.42.049 0 .1-.007.149-.02l38.96-10.803a.558.558 0 0 0 .343-.272.566.566 0 0 0 .057-.436zm-30.283 10.987a1.27 1.27 0 0 1-.883 1.56l-4.55 1.26a1.27 1.27 0 0 1-1.56-.88l-1.263-4.546a1.27 1.27 0 0 1 .882-1.56l4.55-1.262a1.273 1.273 0 0 1 1.56.882z"/><linearGradient id="vccob" x1="569.99" x2="569.99" y1="4237.01" y2="4180.02" gradientUnits="userSpaceOnUse"><stop offset="0" stop-color="#a14cc9"/><stop offset="1" stop-color="#b654cb"/></linearGradient></defs><g><g transform="translate(-538 -4180)"><use fill="#a14cc9" xlink:href="#vccoa"/><use fill="url(#vccob)" xlink:href="#vccoa"/></g></g></svg>