<svg xmlns="http://www.w3.org/2000/svg" xmlns:xlink="http://www.w3.org/1999/xlink">
  <symbol viewBox="0 0 64 57" id="icon-card">
    <path transform="translate(-538 -4180)" d="M599.542 4188.37a3.088 3.088 0 0 1 2.377 3.648l-.744 4.782-45.222-9.562.745-4.781a3.09 3.09 0 0 1 3.652-2.374zm-15.807 11.867l15.74 3.328-2.765 13.052a3.09 3.09 0 0 1-3.653 2.374l-4.37-.922 1.166 4.198a3.117 3.117 0 0 1-2.165 3.825l-38.961 10.803a3.12 3.12 0 0 1-3.829-2.164l-6.792-24.454a3.117 3.117 0 0 1 2.166-3.825l12.052-3.342 1.929-9.106 17.54 3.708 7.44-2.063a3.121 3.121 0 0 1 3.828 2.163zm3.825 10.005c-.144.68.296 1.356.98 1.501l4.553.963a1.272 1.272 0 0 0 1.503-.977l.963-4.55a1.27 1.27 0 0 0-.978-1.5l-4.554-.964a1.272 1.272 0 0 0-1.503.976zm-46.61-1.35a.582.582 0 0 0-.4.708l1.328 4.781 40.067-11.109-1.007-3.625-.321-1.157a.587.587 0 0 0-.708-.4l-2.738.76-25.44 7.054zm44.941 8.586l-2.443-8.798-40.068 11.11 3.962 14.264a.59.59 0 0 0 .708.4l38.96-10.803a.558.558 0 0 0 .343-.272.566.566 0 0 0 .057-.436zm-30.283 10.987a1.27 1.27 0 0 1-.883 1.56l-4.55 1.26a1.27 1.27 0 0 1-1.56-.88l-1.263-4.546a1.27 1.27 0 0 1 .882-1.56l4.55-1.262a1.273 1.273 0 0 1 1.56.882z"></path>
  </symbol>
  <symbol viewBox="0 0 81 59" id="icon-check">
    <path transform="translate(-544 -2535)" id="a" d="M624.63 2543.789l-50.204 49.86a1.131 1.131 0 0 1-1.6 0l-28.504-28.315a1.108 1.108 0 0 1 0-1.584l6.927-6.879a1.131 1.131 0 0 1 1.599 0l20.78 20.638 42.481-42.188a1.131 1.131 0 0 1 1.6 0l6.922 6.879a1.116 1.116 0 0 1 0 1.589z"></path>
  </symbol>
  <symbol viewBox="0 0 39 42" id="icon-client">
    <path transform="translate(-458 -1860)" d="M470.371 1887.801v9.597a1.796 1.796 0 1 1-3.59 0v-14.355h-.775v14.355a1.795 1.795 0 1 1-3.591 0v-25.157a.325.325 0 0 0-.65-.002v10.988a1.497 1.497 0 1 1-2.992 0v-10.995c.01-1.95 1.623-3.532 3.596-3.532h7.996a3.61 3.61 0 0 1 2.593 1.094c-2.253.387-3.962 2.336-3.974 4.651v11.001c0 1.012.56 1.895 1.387 2.355zm-3.978-26.293a3.101 3.101 0 1 1-.001 6.203 3.101 3.101 0 0 1 0-6.203zm18.174 11.224v10.495c0 .866-.737 1.566-1.625 1.49v-10.362zm12.195-.508v11.003a1.496 1.496 0 1 1-2.992 0v-10.995a.315.315 0 0 0-.316-.313c-.174 0-.282.14-.282.315v25.164a1.796 1.796 0 1 1-3.59 0v-14.355h-.775v14.355a1.796 1.796 0 1 1-3.59 0v-25.314l1.419-1.42c.62-.619.703-1.226.88-1.964h5.65c1.973 0 3.586 1.581 3.596 3.524zm-7.793-9.554c.092-.385.1-.777.024-1.155a3.101 3.101 0 1 1-1.162 5.881zm-3.178 7.148c-3.987 3.983-4.013 3.958-4.013 3.957v25.843a1.796 1.796 0 1 1-3.59 0v-14.356h-.776v14.356a1.795 1.795 0 1 1-3.59 0v-25.186c0-.378-.544-.446-.636-.078-.022.086-.014-.624-.014 11.092a1.496 1.496 0 1 1-2.992 0v-10.994c.01-1.953 1.629-3.532 3.596-3.532 5.943 0 3.882-.012 6.638.039l2.964-2.96 1.519-6.31a1.499 1.499 0 0 1 1.805-1.104 1.499 1.499 0 0 1 1.104 1.805l-1.618 6.72a1.504 1.504 0 0 1-.397.708zm-11.092-2.989a3.1 3.1 0 1 1 6.201 0 3.1 3.1 0 1 1-6.2 0z"></path>
  </symbol>
  <symbol viewBox="0 0 459 459" id="icon-menu">
    <path d="M0 382.5h459v-51H0v51zM0 255h459v-51H0v51zM0 76.5v51h459v-51H0z"></path>
  </symbol>
  <symbol viewBox="0 0 30 54" id="icon-mobile">
    <path transform="translate(-944 -4181)" d="M970.15 4180.987c2.132 0 3.857 1.77 3.857 3.932v46.164c0 2.173-1.725 3.933-3.856 3.933h-22.296c-2.131 0-3.857-1.76-3.857-3.933v-46.164c0-2.163 1.726-3.932 3.857-3.932zm-16.648 2.394c-.284 0-.502.424-.502.943 0 .53.218.952.502.952h11.001c.282 0 .51-.423.51-.952 0-.52-.228-.943-.51-.943zm5.506 47.749c1.346 0 2.45-1.125 2.45-2.508 0-1.386-1.104-2.51-2.45-2.51-1.36 0-2.472 1.124-2.472 2.51 0 1.383 1.113 2.508 2.472 2.508zm12.103-43.499h-24.22v34.895h24.22z"></path>
  </symbol>
  <symbol viewBox="0 0 39 35" id="icon-money">
    <path transform="translate(-1197 -1861)" d="M1208.767 1881.546c-6.181 0-11.192-2.27-11.192-5.072v-1.1c0-2.801 5.011-5.072 11.192-5.072 1.083 0 2.129.07 3.119.2v10.844c-.99.13-2.036.2-3.12.2zm0 5.662c-6.181 0-11.192-2.27-11.192-5.071v-1.101c0-.356.082-.703.236-1.038 1.057 2.303 5.56 4.033 10.956 4.033 1.083 0 2.129-.07 3.119-.201v3.178c-.99.13-2.036.2-3.12.2zm3.119 3.632c0 .615.142 1.21.418 1.773-1.112.167-2.3.259-3.537.259-6.181 0-11.192-2.272-11.192-5.073v-1.1c0-.356.082-.703.236-1.039 1.057 2.303 5.56 4.033 10.956 4.033 1.083 0 2.128-.07 3.119-.2zm13.018-29.129c6.18 0 11.191 2.271 11.191 5.073v1.1c0 2.801-5.01 5.072-11.19 5.072-6.182 0-11.193-2.27-11.193-5.072v-1.1c0-2.802 5.01-5.073 11.192-5.073zm0 13.73c5.395 0 9.898-1.73 10.956-4.034.154.336.235.683.235 1.039v1.1c0 2.801-5.01 5.072-11.191 5.072-6.181 0-11.192-2.27-11.192-5.072v-1.1c0-.356.082-.703.236-1.039 1.057 2.303 5.56 4.034 10.956 4.034zm0 5.662c5.395 0 9.898-1.73 10.956-4.033.154.336.235.683.235 1.04v1.098c0 2.802-5.01 5.073-11.191 5.073-6.181 0-11.192-2.271-11.192-5.073v-1.099c0-.356.082-.703.236-1.039 1.057 2.303 5.56 4.033 10.956 4.033zm0 5.969c5.395 0 9.898-1.73 10.956-4.034.154.336.235.683.235 1.04v1.1c0 2.8-5.01 5.071-11.191 5.071-6.181 0-11.192-2.27-11.192-5.072v-1.1c0-.356.082-.703.236-1.039 1.057 2.303 5.56 4.034 10.956 4.034zm0 5.662c5.395 0 9.898-1.73 10.956-4.033.154.335.235.683.235 1.039v1.1c0 2.801-5.01 5.072-11.191 5.072-6.181 0-11.192-2.27-11.192-5.072v-1.1c0-.356.082-.703.236-1.039 1.057 2.303 5.56 4.033 10.956 4.033z"></path>
  </symbol>
  <symbol viewBox="0 0 38 39" id="icon-order">
    <path transform="translate(-833 -1859)" d="M854.06 1866.561a1.726 1.726 0 0 1 0 3.452h-12.957a1.727 1.727 0 0 1 0-3.452zm1.724 8.2c0 .954-.774 1.726-1.724 1.726h-12.957a1.727 1.727 0 0 1 0-3.455h12.957c.95 0 1.724.773 1.724 1.728zm-14.68 8.198a1.726 1.726 0 0 1 0-3.452h6.477a1.727 1.727 0 0 1 0 3.452zm19.516 5.87a2.57 2.57 0 0 0 .817-.867l.825-1.424v9.512c0 .955-.774 1.729-1.729 1.729h-25.908c-.95 0-1.725-.774-1.725-1.729v-34.527c0-.95.775-1.724 1.725-1.724h25.908c.955 0 1.73.773 1.73 1.724v2.568l-3.455 5.982v-6.822h-22.454v31.071h22.454v-4.297zm10.212-21.037a.862.862 0 0 1-.095.62l-10.796 18.69a.854.854 0 0 1-.273.287l-5.64 3.721a.863.863 0 0 1-.908.028.867.867 0 0 1-.427-.802l.402-6.741a.842.842 0 0 1 .116-.38l10.791-18.685a.88.88 0 0 1 .49-.395c.154-.048 1.544-.426 3.743.84 2.195 1.267 2.561 2.663 2.597 2.817zm-12.936 19.215c-.276-.359-.77-.844-1.614-1.334-.85-.489-1.516-.67-1.967-.73l-.122 2.021c.344.133.7.303 1.046.508.352.202.679.42.967.651zm-12.956 3.93c-.023-.15-.019-.292-.016-.403a4.24 4.24 0 0 1-.272.45c-.395.556-1.476.225-1.184-.501.02-.048.043-.1.07-.15-.003 0-.003-.004-.006-.004.035-.08.066-.158.097-.237a1.465 1.465 0 0 0-.418.407c-.478.663-1.578.058-1.117-.656.32-.445.628-.91.916-1.384a46.943 46.943 0 0 0-3.363 3.926c-.501.65-1.627.008-1.118-.652 1.189-1.542 2.412-3.088 3.806-4.45.557-.544 1.299-1.452 2.164-1.42.205.008.465.114.555.32.3.682.009 1.522-.45 2.315a.605.605 0 0 1 .407.284c.036.064.06.126.087.186.387-.064.778.087 1.082.607.102.173.134.3.134.395 1.635-.269 3.004.146 4.65.146.833 0 .833 1.294 0 1.294-1.413 0-3.197-.75-4.516-.11-.213.102-.525.311-.781.201-.269-.111-.667-.217-.727-.565z"></path>
  </symbol>
  <symbol viewBox="0 0 357 357" id="icon-close">
  <path d="M357 35.7L321.3 0 178.5 142.8 35.7 0 0 35.7l142.8 142.8L0 321.3 35.7 357l142.8-142.8L321.3 357l35.7-35.7-142.8-142.8z"/>
</symbol>
<symbol id="icon-rubl" viewBox="0 0 67 59">
    <path transform="translate(-6 -5)" d="M17.022 51.545c-4.355 0-7.9-3.52-7.9-7.85V12.85c0-4.328 3.544-7.85 7.9-7.85h44.956c4.355 0 7.9 3.522 7.9 7.85v30.847c0 4.328-3.545 7.85-7.9 7.85zm46.044-37.747c0-1.121-.915-2.03-2.043-2.03H17.977a2.037 2.037 0 0 0-2.044 2.03v28.95c0 1.12.915 2.03 2.044 2.03h43.046c1.128 0 2.043-.91 2.043-2.03zM73 55.607c-.215 4.664-4.1 8.392-8.844 8.392H14.844C10.1 64 6.214 60.271 6 55.607zM20.02 15.829h38.96v24.888H20.02zm12.624 15.834h1.944v1.44h-1.944v2.833h1.944V38h3.409v-2.064h8.76v-2.832h-8.76v-1.44h2.208c1.536 0 2.712-.073 3.528-.24 1.776-.385 3.745-1.993 3.745-5.065 0-2.688-1.465-4.416-3.385-4.92-.648-.168-1.992-.264-4.056-.264h-5.449v7.656h-1.944zm6.985-7.632c1.224 0 2.04.048 2.448.12 1.08.192 1.896 1.032 1.896 2.256 0 .984-.576 1.824-1.44 2.136-.456.168-1.344.264-2.688.264h-1.848v-4.776z"/>
</symbol>
</svg>