<svg xmlns="http://www.w3.org/2000/svg" xmlns:xlink="http://www.w3.org/1999/xlink" width="38" height="39" viewBox="0 0 38 39"><defs><path id="n208a" d="M854.06 1866.561a1.726 1.726 0 0 1 0 3.452h-12.957a1.727 1.727 0 0 1 0-3.452zm1.724 8.2c0 .954-.774 1.726-1.724 1.726h-12.957a1.727 1.727 0 0 1 0-3.455h12.957c.95 0 1.724.773 1.724 1.728zm-14.68 8.198a1.726 1.726 0 0 1 0-3.452h6.477a1.727 1.727 0 0 1 0 3.452zm19.516 5.87c.332-.217.616-.517.817-.867l.825-1.424v9.512c0 .955-.774 1.729-1.729 1.729h-25.908c-.95 0-1.725-.774-1.725-1.729v-34.527c0-.95.775-1.724 1.725-1.724h25.908c.955 0 1.73.773 1.73 1.724v2.568l-3.455 5.982v-6.822h-22.454v31.071h22.454v-4.297zm10.212-21.037a.862.862 0 0 1-.095.62l-10.796 18.69a.854.854 0 0 1-.273.287l-5.64 3.721a.863.863 0 0 1-.908.028.867.867 0 0 1-.427-.802l.402-6.741a.842.842 0 0 1 .116-.38l10.791-18.685a.88.88 0 0 1 .49-.395c.154-.048 1.544-.426 3.743.84 2.195 1.267 2.561 2.663 2.597 2.817zm-12.936 19.215c-.276-.359-.77-.844-1.614-1.334-.85-.489-1.516-.67-1.967-.73l-.122 2.021c.344.133.7.303 1.046.508.352.202.679.42.967.651zm-12.956 3.93c-.023-.15-.019-.292-.016-.403a4.24 4.24 0 0 1-.272.45c-.395.556-1.476.225-1.184-.501.02-.048.043-.1.07-.15-.003 0-.003-.004-.006-.004.035-.08.066-.158.097-.237a1.465 1.465 0 0 0-.418.407c-.478.663-1.578.058-1.117-.656.32-.445.628-.91.916-1.384a46.943 46.943 0 0 0-3.363 3.926c-.501.65-1.627.008-1.118-.652 1.189-1.542 2.412-3.088 3.806-4.45.557-.544 1.299-1.452 2.164-1.42.205.008.465.114.555.32.3.682.009 1.522-.45 2.315a.605.605 0 0 1 .407.284c.036.064.06.126.087.186.387-.064.778.087 1.082.607.102.173.134.3.134.395 1.635-.269 3.004.146 4.65.146.833 0 .833 1.294 0 1.294-1.413 0-3.197-.75-4.516-.11-.213.102-.525.311-.781.201-.269-.111-.667-.217-.727-.565z"/></defs><g><g transform="translate(-833 -1859)"><use fill="#fff" xlink:href="#n208a"/></g></g></svg>