<svg xmlns="http://www.w3.org/2000/svg" xmlns:xlink="http://www.w3.org/1999/xlink" width="39" height="42" viewBox="0 0 39 42"><defs><path id="3tv9a" d="M470.371 1887.801v9.597a1.796 1.796 0 1 1-3.59 0v-14.355h-.775v14.355a1.795 1.795 0 1 1-3.591 0v-25.157a.325.325 0 0 0-.65-.002v10.988a1.497 1.497 0 1 1-2.992 0v-10.995c.01-1.95 1.623-3.532 3.596-3.532h7.996a3.61 3.61 0 0 1 2.593 1.094c-2.253.387-3.962 2.336-3.974 4.651v11.001c0 1.012.56 1.895 1.387 2.355zm-3.978-26.293a3.101 3.101 0 1 1-.001 6.203 3.101 3.101 0 0 1 0-6.203zm18.174 11.224v10.495c0 .866-.737 1.566-1.625 1.49v-10.362zm12.195-.508v11.003a1.496 1.496 0 1 1-2.992 0v-10.995a.315.315 0 0 0-.316-.313c-.174 0-.282.14-.282.315v25.164a1.796 1.796 0 1 1-3.59 0v-14.355h-.775v14.355a1.796 1.796 0 1 1-3.59 0v-25.314l1.419-1.42c.62-.619.703-1.226.88-1.964h5.65c1.973 0 3.586 1.581 3.596 3.524zm-7.793-9.554c.092-.385.1-.777.024-1.155a3.101 3.101 0 1 1-1.162 5.881zm-3.178 7.148c-3.987 3.983-4.013 3.958-4.013 3.957v25.843a1.796 1.796 0 1 1-3.59 0v-14.356h-.776v14.356a1.795 1.795 0 1 1-3.59 0v-14.356-10.83c0-.378-.544-.446-.636-.078-.022.086-.014-.624-.014 11.092a1.496 1.496 0 1 1-2.992 0v-10.994c.01-1.953 1.629-3.532 3.596-3.532 5.943 0 3.882-.012 6.638.039l2.964-2.96 1.519-6.31a1.499 1.499 0 0 1 1.805-1.104 1.499 1.499 0 0 1 1.104 1.805l-1.618 6.72a1.504 1.504 0 0 1-.397.708zm-11.092-2.989a3.1 3.1 0 1 1 6.201 0 3.1 3.1 0 1 1-6.2 0z"/></defs><g><g transform="translate(-458 -1860)"><use fill="#fff" xlink:href="#3tv9a"/></g></g></svg>