<svg xmlns="http://www.w3.org/2000/svg" xmlns:xlink="http://www.w3.org/1999/xlink" width="39" height="35" viewBox="0 0 39 35"><defs><path id="z84ta" d="M1208.767 1881.546c-6.181 0-11.192-2.27-11.192-5.072v-1.1c0-2.801 5.011-5.072 11.192-5.072 1.083 0 2.129.07 3.119.2v10.844c-.99.13-2.036.2-3.12.2zm0 5.662c-6.181 0-11.192-2.27-11.192-5.071v-1.101c0-.356.082-.703.236-1.038 1.057 2.303 5.56 4.033 10.956 4.033 1.083 0 2.129-.07 3.119-.201v3.178c-.99.13-2.036.2-3.12.2zm3.119 3.632c0 .615.142 1.21.418 1.773-1.112.167-2.3.259-3.537.259-6.181 0-11.192-2.272-11.192-5.073v-1.1c0-.356.082-.703.236-1.039 1.057 2.303 5.56 4.033 10.956 4.033 1.083 0 2.128-.07 3.119-.2zm13.018-29.129c6.18 0 11.191 2.271 11.191 5.073v1.1c0 2.801-5.01 5.072-11.19 5.072-6.182 0-11.193-2.27-11.193-5.072v-1.1c0-2.802 5.01-5.073 11.192-5.073zm0 13.73c5.395 0 9.898-1.73 10.956-4.034.154.336.235.683.235 1.039v1.1c0 2.801-5.01 5.072-11.191 5.072-6.181 0-11.192-2.27-11.192-5.072v-1.1c0-.356.082-.703.236-1.039 1.057 2.303 5.56 4.034 10.956 4.034zm0 5.662c5.395 0 9.898-1.73 10.956-4.033.154.336.235.683.235 1.04v1.098c0 2.802-5.01 5.073-11.191 5.073-6.181 0-11.192-2.271-11.192-5.073v-1.099c0-.356.082-.703.236-1.039 1.057 2.303 5.56 4.033 10.956 4.033zm0 5.969c5.395 0 9.898-1.73 10.956-4.034.154.336.235.683.235 1.04v1.1c0 2.8-5.01 5.071-11.191 5.071-6.181 0-11.192-2.27-11.192-5.072v-1.1c0-.356.082-.703.236-1.039 1.057 2.303 5.56 4.034 10.956 4.034zm0 5.662c5.395 0 9.898-1.73 10.956-4.033.154.335.235.683.235 1.039v1.1c0 2.801-5.01 5.072-11.191 5.072-6.181 0-11.192-2.27-11.192-5.072v-1.1c0-.356.082-.703.236-1.039 1.057 2.303 5.56 4.033 10.956 4.033z"/></defs><g><g transform="translate(-1197 -1861)"><use fill="#fff" xlink:href="#z84ta"/></g></g></svg>