<svg xmlns="http://www.w3.org/2000/svg" xmlns:xlink="http://www.w3.org/1999/xlink" width="30" height="54" viewBox="0 0 30 54"><defs><path id="wv3da" d="M970.15 4180.987c2.132 0 3.857 1.77 3.857 3.932v46.164c0 2.173-1.725 3.933-3.856 3.933h-22.296c-2.131 0-3.857-1.76-3.857-3.933v-46.164c0-2.163 1.726-3.932 3.857-3.932zm-16.648 2.394c-.284 0-.502.424-.502.943 0 .53.218.952.502.952h11.001c.282 0 .51-.423.51-.952 0-.52-.228-.943-.51-.943zm5.506 47.749c1.346 0 2.45-1.125 2.45-2.508 0-1.386-1.104-2.51-2.45-2.51-1.36 0-2.472 1.124-2.472 2.51 0 1.383 1.113 2.508 2.472 2.508zm12.103-43.499h-24.22v34.895h24.22z"/><linearGradient id="wv3db" x1="959.01" x2="959" y1="4235.02" y2="4180.99" gradientUnits="userSpaceOnUse"><stop offset="0" stop-color="#a14cc9"/><stop offset="1" stop-color="#b654cb"/></linearGradient></defs><g><g transform="translate(-944 -4181)"><use fill="#a14cc9" xlink:href="#wv3da"/><use fill="url(#wv3db)" xlink:href="#wv3da"/></g></g></svg>