<svg xmlns="http://www.w3.org/2000/svg" xmlns:xlink="http://www.w3.org/1999/xlink" width="67" height="59" viewBox="0 0 67 59"><defs><path id="7mvda" d="M17.022 51.545c-4.355 0-7.9-3.52-7.9-7.85V12.85c0-4.328 3.544-7.85 7.9-7.85h44.956c4.355 0 7.9 3.522 7.9 7.85v30.847c0 4.328-3.545 7.85-7.9 7.85zm46.044-37.747c0-1.121-.915-2.03-2.043-2.03H17.977c-1.129 0-2.044.909-2.044 2.03v28.95c0 1.12.915 2.03 2.044 2.03h43.046c1.128 0 2.043-.91 2.043-2.03zM73 55.607c-.215 4.664-4.1 8.392-8.844 8.392H14.844C10.1 64 6.214 60.271 6 55.607zM20.02 15.829h38.96v24.888H20.02zm12.624 15.834h1.944v1.44h-1.944v2.833h1.944V38h3.409v-2.064h8.76v-2.832h-8.76v-1.44h2.208c1.536 0 2.712-.073 3.528-.24 1.776-.385 3.745-1.993 3.745-5.065 0-2.688-1.465-4.416-3.385-4.92-.648-.168-1.992-.264-4.056-.264h-5.449v7.656h-1.944zm6.985-7.632c1.224 0 2.04.048 2.448.12 1.08.192 1.896 1.032 1.896 2.256 0 .984-.576 1.824-1.44 2.136-.456.168-1.344.264-2.688.264h-1.848v-4.776z"/><linearGradient id="7mvdb" x1="39" x2="40" y1="64" y2="5" gradientUnits="userSpaceOnUse"><stop offset="0" stop-color="#a14cc9"/><stop offset="1" stop-color="#b654cb"/></linearGradient></defs><g><g transform="translate(-6 -5)"><use fill="#fff2e2" xlink:href="#7mvda"/><use fill="url(#7mvdb)" xlink:href="#7mvda"/></g></g></svg>